#!OML:ASF F:\VICON\USERDATA\INSTALL\rory3\rory3.ASF
:FULLY-SPECIFIED
:DEGREES
54
root 0.7095458455535527 17.704142011731186 18.69761929915847 -2.277018817632409 -3.7829345666463237 -5.363537440078529
lfemur -25.42712675491579 -3.8522845132079357 -14.500766474382718
ltibia 21.717408379343677
lfoot -2.5306401393720743 -1.8267616254792292
ltoes -3.4995957340812502
rfemur 12.292191884447826 5.097357092113599 30.605487659321554
rtibia 40.09176155992031
rfoot -3.1226716164056763 -0.2356544154712541
rtoes -3.3052639290232984
lowerback 8.996173434183858 2.390701592744155 4.894118522190997
upperback 0.07029294237266398 3.7946011518627003 1.2867294479041556
thorax -4.842074797043665 1.7647527079603873 -1.970275829920272
lowerneck -16.609425179655712 -3.546211869646369 -1.4351295898334577
upperneck 20.57992615118398 -4.776276928267213 1.031652442746946
head 9.279439123992269 -2.2395860708188846 -0.017389774789468182
lclavicle -1.0289009586317951e-15 -8.626515617360025e-16
lhumerus -38.772996644669014 12.128091162546648 78.52414713184962
lradius 14.05766515009013
lwrist -0.7840675794170089
lhand -27.697228103709655 22.27964880033513
lfingers 7.125020000000057
lthumb -1.0931590711641546 52.2441608920914
rclavicle -1.0289009586317951e-15 -8.626515617360025e-16
rhumerus -21.260961509496713 -14.678961205559853 -80.5171091427264
rradius 29.455508575729375
rwrist -0.41880096366982844
rhand -17.8461892928512 30.598506493316616
rfingers 7.125020000000057
rthumb 8.41906943195017 -6.404445488342797
55
root 0.7372688011646734 17.758006977238452 19.52333132733097 -3.1081679501800408 -3.756202486734792 -3.907400757199204
lfemur -23.374539253647654 -3.334787227118672 -17.17376850939008
ltibia 25.69039216203244
lfoot -3.256797986937031 -3.0992931913214754
ltoes -2.1016095842060833
rfemur 8.212975304146314 3.75465362432821 27.93695217547405
rtibia 51.801668342231345
rfoot 8.002876813820338 0.6310606980348794
rtoes 3.7788356912216408
lowerback 9.187677377487526 2.369497240092879 3.6862668175937605
upperback 0.062287280693602454 3.6273229071699884 0.9285578488229862
thorax -5.02378174095932 1.7045552347653246 -1.6278990769981663
lowerneck -16.46187439845855 -3.518585880902883 -1.4818489193665392
upperneck 20.879154280393458 -4.750844219300782 1.083795543954214
head 9.357044866900479 -2.222713900891178 0.01191441576716501
lclavicle -1.0739416397059522e-15 -8.97526704977034e-16
lhumerus -38.81439062456949 12.412193424130466 78.18871586606794
lradius 13.668344759388141
lwrist -0.5125763239818006
lhand -27.371882246763125 22.82038531131549
lfingers 7.125020000000057
lthumb -0.7789475202245657 52.77915499668579
rclavicle -1.0739416397059522e-15 -8.97526704977034e-16
rhumerus -23.125377455753615 -16.658438389634345 -79.9709180877405
rradius 28.29541298915435
rwrist 0.7853521325438173
rhand -17.741812728261937 30.52783132059313
rfingers 7.125020000000057
rthumb 8.519882544607166 -6.795787518246289
56
root 0.7549975982990268 17.821053307008437 20.295759506486355 -3.8266503328690025 -3.945966698133436 -2.432104602075485
lfemur -20.57160281942212 -3.150291622169699 -19.652178085803776
ltibia 28.06480095581093
lfoot -5.089341595111182 -2.863070756455227
ltoes -0.6837488079191658
rfemur 2.3476746132278077 2.3562054126065246 25.327137668731186
rtibia 64.48388360313035
rfoot 16.136375781990456 -0.44110800642816184
rtoes 11.399227804573982
lowerback 9.551912755441322 2.2964082682794604 2.3850089306118365
upperback 0.11022407007077861 3.383919415578823 0.6204533664685712
thorax -5.233362886364461 1.6098470311547715 -1.1743452491270294
lowerneck -16.428662141018723 -3.36781018376745 -1.5147464620410198
upperneck 21.019090826578303 -4.538120525001596 1.0615343541486286
head 9.395122252821057 -2.123789287625789 0.033854021292859804
lclavicle -1.115499760131727e-15 -9.297052782720143e-16
lhumerus -38.46058770537956 11.989453545246244 78.29756686832937
lradius 14.002233972470755
lwrist 0.6254138120698798
lhand -27.63192829598053 22.795313207384517
lfingers 7.125020000000056
lthumb -1.030069936903388 52.749706991567464
rclavicle -1.115499760131727e-15 -9.297052782720143e-16
rhumerus -24.723769790837743 -18.428704077419322 -79.50258913602357
rradius 26.955249115692617
rwrist 2.3666293953652335
rhand -17.596030853888646 30.387740794121328
rfingers 7.125020000000056
rthumb 8.66059834771501 -7.105275332405342
57
root 0.7712988834812364 17.878959282823594 21.01362625334661 -4.39464889107132 -4.144162091368516 -1.1594401745694622
lfemur -17.374338691331815 -3.251192282670152 -21.723653161114914
ltibia 28.820536902573167
lfoot -7.384230736565225 -1.7824924722382116
ltoes 0.4304384285060836
rfemur -4.304219608732327 0.9201502518804761 23.21511706922645
rtibia 75.8504353453859
rfoot 18.311243129095576 -2.983850235672512
rtoes 16.347509799709695
lowerback 9.969319892222261 2.1138723942434265 1.1694973223980747
upperback 0.21094353485058853 3.004628300265604 0.42638548863410297
thorax -5.404065310810649 1.4494096841181556 -0.6356908031943277
lowerneck -16.41854405214795 -3.127609795987937 -1.5499770772700652
upperneck 21.01585131271456 -4.181365623077391 0.9663337315655542
head 9.382818924971737 -1.9654094953995234 0.04787005520370824
lclavicle -1.1649338565834745e-15 -9.679822065131654e-16
lhumerus -37.66571490366216 11.011459750710625 78.69919059087658
lradius 14.716455424732573
lwrist 1.988757903095852
lhand -28.348294521176793 22.05819107977842
lfingers 7.125020000000056
lthumb -1.7218820539684407 52.01150235064823
rclavicle -1.1649338565834745e-15 -9.679822065131654e-16
rhumerus -25.898812910472508 -20.06469181050568 -79.08692584157146
rradius 25.49411198093798
rwrist 4.1802918198632915
rhand -17.42885950807215 30.2039578736477
rfingers 7.125020000000056
rthumb 8.821873366412373 -7.280191864662764
